<?xml version="1.0" encoding="UTF-8" standalone="no"?>
<svg xmlns="http://www.w3.org/2000/svg"
     xmlns:svg="http://www.w3.org/2000/svg"
     version="1.1"
     width="0.853333in" height="0.853333in"
     viewBox="0 0 256 256">
     <rect width="256" height="256" fill="#483d3f"/>
  <path fill="#da4167" stroke="none"
        d="M 137.49,92.97
           C 146.70,93.36 155.08,94.69 158.85,96.94
             158.85,96.94 158.85,96.94 158.85,96.94
             166.04,102.41 171.50,102.41 176.96,96.94
             182.42,91.47 182.42,84.17 176.96,78.69
             171.50,73.22 166.04,73.22 158.76,78.69
             154.94,81.00 146.28,82.33 136.87,82.69
             136.60,75.25 136.64,67.28 137.01,60.04
             141.86,60.61 146.39,61.87 149.72,63.86
             156.91,69.34 162.37,69.34 167.83,63.86
             173.29,58.39 173.29,51.09 167.83,45.62
             162.37,40.14 156.91,40.14 149.63,45.62
             146.53,47.48 142.36,48.71 137.86,49.28
             138.53,43.29 139.51,38.65 140.79,36.53
             140.79,36.53 140.79,36.53 140.79,36.53
             146.25,29.14 146.25,23.67 140.79,18.20
             135.33,12.72 128.05,12.72 122.59,18.20
             117.14,23.67 117.14,29.14 122.59,36.26
             123.90,38.48 124.89,43.27 125.57,49.39
             120.88,48.81 116.53,47.56 113.33,45.62
             105.96,40.14 100.50,40.14 95.05,45.62
             89.59,51.09 89.59,58.39 95.05,63.86
             100.50,69.34 105.96,69.34 113.06,63.86
             116.55,61.80 121.30,60.52 126.37,60.01
             126.59,64.16 126.69,68.54 126.69,72.93
             126.69,76.23 126.63,79.54 126.50,82.72
             116.93,82.37 108.11,81.03 104.27,78.69
             96.90,73.22 91.44,73.22 85.98,78.69
             80.52,84.17 80.52,91.47 85.98,96.94
             91.44,102.41 96.90,102.41 103.99,96.94
             107.88,94.65 116.52,93.32 125.91,92.95
             125.48,97.92 124.87,102.24 124.10,105.35
             119.35,106.14 114.78,107.52 110.37,109.44
             102.67,112.80 96.00,117.56 90.35,123.73
             84.63,129.96 80.16,137.40 76.93,146.05
             73.71,154.65 72.09,164.23 72.09,174.82
             72.09,185.41 73.74,194.93 77.03,203.40
             80.32,211.81 84.73,218.94 90.25,224.79
             95.84,230.64 102.24,235.13 109.44,238.24
             116.71,241.35 124.28,242.91 132.17,242.91
             144.34,242.91 154.83,240.11 163.65,234.50
             172.46,228.84 179.54,219.43 184.88,206.30
             184.88,206.30 177.90,202.93 177.90,202.93
             176.41,207.04 174.51,210.80 172.12,214.33
             169.80,217.76 167.13,221.04 163.93,223.67
             160.66,226.35 157.16,228.40 152.94,230.02
             148.71,231.58 144.09,232.35 139.06,232.35
             132.35,232.35 126.27,230.86 120.80,227.87
             115.40,224.88 110.71,220.74 106.74,215.45
             102.77,210.09 99.69,203.90 97.52,196.86
             95.41,189.76 94.35,181.98 94.35,173.51
             94.35,163.92 95.38,155.24 97.43,147.45
             99.47,139.67 102.30,133.26 105.90,128.21
             109.69,122.98 114.16,119.03 119.31,116.35
             124.53,113.67 130.15,112.33 136.17,112.33
             141.45,112.33 146.39,113.05 150.48,115.48
             160.92,121.53 168.58,131.13 173.05,142.85
             175.04,148.20 176.28,152.93 177.28,157.54
             177.28,157.54 184.67,155.05 184.67,155.05
             181.34,140.60 173.13,121.50 155.98,110.06
             152.27,107.65 145.26,105.47 139.22,104.74
             138.45,101.71 137.89,97.62 137.49,92.97
             137.49,92.97 137.49,92.97 137.49,92.97 Z" />
</svg>
