<?xml version="1.0" encoding="UTF-8" standalone="no"?>
<!DOCTYPE svg PUBLIC "-//W3C//DTD SVG 20010904//EN"
              "http://www.w3.org/TR/2001/REC-SVG-20010904/DTD/svg10.dtd">

<svg xmlns="http://www.w3.org/2000/svg"
     width="18.9722in" height="34.7222in"
     viewBox="0 0 1366 2500">
  <path id="road2"
        fill="none" stroke="black" stroke-width="1"
        d="M 1608.00,2584.00
           C 1360.00,2008.00 504.00,2216.00 832.00,1640.00
             936.00,1456.00 872.00,1344.00 648.00,1280.00
             352.00,1192.00 351.00,1149.00 352.00,1072.00
             359.00,861.00 481.33,915.33 452.57,795.69
             452.57,795.69 375.45,611.08 596.66,515.08
             704.22,437.54 623.04,312.00 791.48,284.31
             791.48,284.31 907.15,274.05 970.07,326.77
             1013.28,362.97 1021.77,457.25 990.37,491.08
             909.19,559.38 746.84,696.00 884.84,817.85
             1077.63,958.15 1252.17,790.15 1209.55,657.23
             1154.75,487.38 1248.11,443.08 1420.61,540.92" />
</svg>
