<?xml version="1.0" encoding="UTF-8" standalone="no"?>
<!DOCTYPE svg PUBLIC "-//W3C//DTD SVG 20010904//EN"
              "http://www.w3.org/TR/2001/REC-SVG-20010904/DTD/svg10.dtd">

<svg xmlns="http://www.w3.org/2000/svg"
     width="9.11111in" height="5.13333in"
     viewBox="0 0 820 462">
  <path id="testRoadKey2"
        fill="none" stroke="black" stroke-width="1"
        d="M 533.24,124.65
           C 530.92,124.37 530.07,124.12 520.02,123.63
             515.63,134.21 494.60,165.32 489.52,152.10
             485.45,136.85 468.16,123.63 455.96,136.85
             441.60,158.41 443.76,178.54 472.23,171.42
             491.55,167.35 501.72,175.49 500.70,184.64
             497.65,208.02 483.42,211.07 472.23,222.26
             447.82,226.32 439.69,225.31 436.64,201.92
             433.59,180.57 412.23,180.57 400.03,191.75
             388.85,201.92 391.08,213.31 403.08,228.36
             416.87,245.68 437.66,215.14 444.77,252.76
             437.66,275.13 416.30,287.33 407.15,287.33
             377.66,282.24 388.85,270.04 381.73,249.71
             370.54,237.51 345.12,251.74 345.12,251.74
             345.12,251.74 329.87,268.01 342.07,281.23
             355.29,295.46 375.63,283.26 374.61,308.68
             373.59,326.98 345.12,335.11 341.05,333.08
             314.62,319.86 331.90,317.83 326.82,303.59
             322.75,293.43 309.53,287.33 294.28,295.46
             281.06,308.68 285.13,314.78 292.24,322.91
             298.06,334.05 318.68,328.00 324.78,347.31
             324.78,347.31 316.65,346.30 316.65,346.30
             316.65,346.30 325.80,358.50 325.80,358.50
             325.80,358.50 522.06,259.87 533.24,124.65 Z" />
</svg>
