<?xml version="1.0" encoding="UTF-8" standalone="no"?>
<!DOCTYPE svg PUBLIC "-//W3C//DTD SVG 20010904//EN"
              "http://www.w3.org/TR/2001/REC-SVG-20010904/DTD/svg10.dtd">

<svg xmlns="http://www.w3.org/2000/svg"
     width="9.11111in" height="5.13333in"
     viewBox="0 0 820 462">
  <path id="testRoadKey1"
        fill="none" stroke="black" stroke-width="1"
        d="M 532.58,124.65
           C 530.26,124.37 529.40,124.12 519.36,123.63
             514.97,134.21 502.08,144.99 497.00,131.77
             492.93,116.52 470.56,104.32 458.37,117.53
             444.01,139.09 455.32,159.22 483.78,152.10
             503.09,148.04 509.19,156.17 508.18,165.32
             505.13,188.70 490.90,197.85 479.71,209.04
             455.32,213.11 444.13,212.09 441.08,188.70
             438.03,167.35 415.67,163.29 403.47,174.47
             392.29,184.64 394.53,202.12 406.52,217.17
             420.31,234.50 448.20,201.92 455.32,239.54
             448.20,261.91 431.94,274.11 422.79,274.11
             393.31,269.03 399.40,255.81 392.29,235.47
             381.11,223.27 357.73,238.52 357.73,238.52
             357.73,238.52 335.36,261.91 347.56,275.13
             360.78,289.36 392.29,271.06 391.27,296.48
             390.26,314.78 356.71,324.95 352.64,322.91
             326.21,309.69 340.44,306.64 335.36,292.41
             331.29,282.24 322.15,279.19 306.90,287.33
             293.68,300.54 292.67,308.68 299.78,316.81
             305.60,327.95 329.26,315.79 335.36,335.11
             335.36,335.11 316.05,346.30 316.05,346.30
             316.05,346.30 325.20,358.50 325.20,358.50
             325.20,358.50 521.39,259.88 532.58,124.65 Z" />
</svg>
