<?xml version="1.0" encoding="UTF-8" standalone="no"?>
<!DOCTYPE svg PUBLIC "-//W3C//DTD SVG 20010904//EN"
              "http://www.w3.org/TR/2001/REC-SVG-20010904/DTD/svg10.dtd">

<svg xmlns="http://www.w3.org/2000/svg"
     width="9.11111in" height="5.13333in"
     viewBox="0 0 820 462">
  <path id="testRoadKey4"
        fill="none" stroke="black" stroke-width="1"
        d="M 533.24,124.65
           C 530.92,124.37 484.43,100.25 475.28,109.40
             474.30,111.72 470.48,125.79 479.35,134.82
             486.91,142.54 503.75,130.75 507.82,151.09
             509.41,170.57 479.31,179.27 476.30,171.42
             472.23,156.17 449.86,139.90 437.66,153.12
             423.30,174.67 424.44,191.75 452.91,184.64
             472.23,180.57 484.43,195.82 483.42,204.97
             480.36,228.36 466.13,227.34 454.94,238.52
             430.54,242.59 423.42,241.57 420.37,218.19
             417.32,196.84 405.12,196.84 392.91,208.02
             381.73,218.19 377.86,224.49 389.86,239.54
             403.65,256.87 420.37,230.39 427.49,268.01
             420.37,290.38 392.91,300.54 383.76,300.54
             354.27,295.46 371.56,287.33 364.44,266.99
             353.26,254.79 333.94,265.98 333.94,265.98
             333.94,265.98 318.68,281.23 330.89,294.44
             344.10,308.68 361.39,297.49 360.37,322.91
             359.36,341.21 332.92,344.26 328.85,342.23
             302.41,329.01 317.67,328.00 312.58,313.76
             308.51,303.59 296.31,296.48 281.06,304.61
             267.84,317.83 302.41,335.11 309.53,343.25
             315.35,354.39 325.80,358.50 325.80,358.50
             325.80,358.50 522.06,259.87 533.24,124.65 Z" />
</svg>
