<?xml version="1.0" encoding="UTF-8" standalone="no"?>
<!DOCTYPE svg PUBLIC "-//W3C//DTD SVG 20010904//EN"
              "http://www.w3.org/TR/2001/REC-SVG-20010904/DTD/svg10.dtd">

<svg xmlns="http://www.w3.org/2000/svg"
     width="9.11111in" height="5.13333in"
     viewBox="0 0 820 462">
  <path id="testRoadKey3"
        fill="none" stroke="black" stroke-width="1"
        d="M 533.24,124.65
           C 530.92,124.37 514.00,116.67 501.33,122.67
             501.33,144.67 489.08,175.22 484.00,162.00
             479.93,146.75 462.20,132.78 450.00,146.00
             435.64,167.55 439.53,185.12 468.00,178.00
             487.32,173.93 496.35,182.85 495.33,192.00
             492.28,215.38 476.52,219.48 465.33,230.67
             440.93,234.73 434.38,230.72 431.33,207.33
             428.28,185.98 406.87,192.15 394.67,203.33
             383.48,213.50 388.67,222.95 400.67,238.00
             414.46,255.32 431.55,223.71 438.67,261.33
             431.55,283.70 409.15,294.67 400.00,294.67
             370.51,289.58 381.12,277.00 374.00,256.67
             362.81,244.47 340.67,258.67 340.67,258.67
             340.67,258.67 327.13,274.78 339.33,288.00
             352.55,302.23 369.02,289.92 368.00,315.33
             366.98,333.63 339.40,338.70 335.33,336.67
             308.89,323.45 325.08,323.57 320.00,309.33
             315.93,299.17 303.92,293.20 288.67,301.33
             275.45,314.55 286.88,323.20 294.00,331.33
             299.82,342.48 310.57,334.68 316.67,354.00
             316.67,354.00 316.00,352.67 316.00,352.67
             316.00,352.67 325.80,358.50 325.80,358.50
             325.80,358.50 522.06,259.87 533.24,124.65 Z" />
</svg>
