<svg width="12" height="12" viewBox="-4200, -4200, 8400, 8400">
    <path stroke-width="8" stroke="black" fill="lightblue"
        d="m-250, -1100 a250,250 0 1 1 500,0 c400,0 600,50 600,1100 c 0,1050 -200,1100 -600,1100a250,250 0 0 1 -500, 0c -400,0 -600,-50 -600,-1100 c 0,-1050 200,-1100 600,-1100" />
    <path stroke-width="1" stroke="black" fill="grey"
        d="m-650,-600 a150,150, 0 1,1 300,0 v1200 a150,150, 0 0 1 -300,0z" />
    <path stroke-width="1" stroke="black" fill="grey"
        d="m350,-600 a150,150, 0 1,1 300,0 v1200 a150,150, 0 0 1 -300,0z" />
    <path stroke-width="1" stroke="black" fill="grey"
        d="m100,-750 a150,150, 0 1,1 300,0 v1500 a150,150, 0 0 1 -300,0z" />
    <path stroke-width="1" stroke="black" fill="grey"
        d="m-400,-750 a150,150, 0 1,1 300,0 v1500 a150,150, 0 0 1 -300,0z" />
    <path stroke-width="1" stroke="black" fill="grey"
        d="m-150,-900 a150,150, 0 1,1 300,0 v1800 a150,150, 0 0 1 -300,0z" />
</svg>